# xmcd CD database file
#
# Track frame offsets:
#	150
#	22066
#	35506
#	51826
#	64763
#	84575
#	94602
#	107899
#	123218
#	134916
#
# Disc length: 2082 seconds
#
# Revision: 0
# Processed by: cddbd v1.4PL0 Copyright (c) Steve Scherf et al.
# Submitted via: CDex 1.50Beta7
#
DISCID=8b08200a
DTITLE=Jennifer Valentyne - Jennifer Valentyne's Wedding Album
DYEAR=2002
DGENRE=Jazz
TTITLE0=My One And Only Love
TTITLE1=It Had To Be You
TTITLE2=More
TTITLE3=Love
TTITLE4=I Wanna Get Married
TTITLE5=Deed I Do
TTITLE6=Our Love Is Hear To Stay
TTITLE7=I'll Dance At Your Wedding
TTITLE8=The Web Of Love
TTITLE9=The Way You Look Tonight
EXTD=YEAR: 2002
EXTT0=
EXTT1=
EXTT2=
EXTT3=
EXTT4=
EXTT5=
EXTT6=
EXTT7=
EXTT8=
EXTT9=
PLAYORDER=
